<svg width="70" height="70" viewBox="0 0 70 70" fill="none" xmlns="http://www.w3.org/2000/svg">
<g opacity="0.7">
<path d="M23.3333 66.3542C12.4833 66.3542 3.64581 57.5167 3.64581 46.6667C3.64581 37.8 9.59581 29.9834 18.1416 27.6792C19.2208 27.3875 20.3291 27.9417 20.7375 28.9917C22.5166 33.4542 26.3083 36.8667 30.9458 38.1209C33.5125 38.8209 36.4875 38.8209 38.9958 38.1209C40.075 37.8292 41.2125 38.3834 41.6208 39.4334C42.525 41.7375 42.9916 44.1875 42.9916 46.6959C42.9916 52.2959 40.6 57.6334 36.4291 61.3375C32.8708 64.5459 28.2041 66.3542 23.3333 66.3542ZM17.5583 32.4625C11.8708 34.7959 8.02081 40.3959 8.02081 46.6667C8.02081 55.0959 14.9041 61.9792 23.3333 61.9792C27.125 61.9792 30.7416 60.5792 33.5416 58.0417C36.8083 55.1542 38.6458 51.0125 38.6458 46.6667C38.6458 45.325 38.4708 44.0417 38.15 42.7875C35.4083 43.225 32.4333 43.0792 29.8083 42.35C24.5291 40.8917 20.0958 37.275 17.5583 32.4625Z" fill="url(#paint0_linear_28_1646)"/>
<path d="M35 43.0208C33.1917 43.0208 31.4417 42.7875 29.8083 42.3208C23.8875 40.6875 18.9583 36.3125 16.6833 30.5666C15.7792 28.2916 15.3125 25.8416 15.3125 23.3333C15.3125 12.4833 24.15 3.64581 35 3.64581C45.85 3.64581 54.6875 12.4833 54.6875 23.3333C54.6875 25.8416 54.2208 28.2916 53.3167 30.5958C51.0417 36.3125 46.1417 40.7166 40.1917 42.35C38.5583 42.7875 36.8083 43.0208 35 43.0208ZM35 8.02081C26.5708 8.02081 19.6875 14.9041 19.6875 23.3333C19.6875 25.2875 20.0375 27.1833 20.7667 28.9625C22.5458 33.425 26.3375 36.8375 30.975 38.0916C33.5417 38.7916 36.5167 38.7916 39.025 38.0916C43.6625 36.8375 47.4833 33.3958 49.2333 28.9625C49.9333 27.1833 50.3125 25.2875 50.3125 23.3333C50.3125 14.9041 43.4292 8.02081 35 8.02081Z" fill="url(#paint1_linear_28_1646)"/>
<path d="M46.6667 66.3541C41.7958 66.3541 37.1292 64.5458 33.5417 61.3083C33.075 60.9 32.8125 60.2875 32.8125 59.675C32.8125 59.0625 33.075 58.45 33.5417 58.0416C36.7792 55.1833 38.6458 51.0416 38.6458 46.6666C38.6458 44.7125 38.2958 42.8166 37.5667 41.0375C37.3333 40.4541 37.3625 39.8125 37.6542 39.2583C37.9458 38.7041 38.4417 38.2958 39.025 38.1208C43.6625 36.8666 47.4542 33.4541 49.2333 28.9916C49.6417 27.9416 50.7792 27.4166 51.8292 27.6791C60.375 30.0125 66.325 37.8 66.325 46.6666C66.3542 57.5166 57.5167 66.3541 46.6667 66.3541ZM38.2667 59.4708C40.7458 61.1041 43.6333 61.9791 46.6667 61.9791C55.0958 61.9791 61.9792 55.0958 61.9792 46.6666C61.9792 40.3958 58.1292 34.7958 52.4417 32.4625C50.2833 36.575 46.6667 39.8416 42.35 41.5916C42.7875 43.225 43.0208 44.9458 43.0208 46.6666C43.0208 51.3916 41.3292 55.9416 38.2667 59.4708Z" fill="url(#paint2_linear_28_1646)"/>
</g>
<defs>
<linearGradient id="paint0_linear_28_1646" x1="-9.99502" y1="7.77071" x2="43.6404" y2="14.4172" gradientUnits="userSpaceOnUse">
<stop offset="0.0001" stop-color="#99FFAF" stop-opacity="0.994792"/>
<stop offset="1" stop-color="#009921"/>
</linearGradient>
<linearGradient id="paint1_linear_28_1646" x1="1.66155" y1="-16.504" x2="55.3611" y2="-9.9499" gradientUnits="userSpaceOnUse">
<stop offset="0.0001" stop-color="#99FFAF" stop-opacity="0.994792"/>
<stop offset="1" stop-color="#009921"/>
</linearGradient>
<linearGradient id="paint2_linear_28_1646" x1="21.194" y1="7.78642" x2="67.0679" y2="12.6296" gradientUnits="userSpaceOnUse">
<stop offset="0.0001" stop-color="#99FFAF" stop-opacity="0.994792"/>
<stop offset="1" stop-color="#009921"/>
</linearGradient>
</defs>
</svg>
